<svg width="80" height="68" viewBox="0 0 80 68" fill="none" xmlns="http://www.w3.org/2000/svg">
<path d="M33.2811 66.5446C51.8095 52.9249 67.1842 41.1624 65.3564 19.8589C63.5645 -0.534301 43.8534 -0.534301 38.2984 2.37901C29.6614 6.93105 24.3215 14.36 33.2452 21.8253C42.169 14.36 36.8291 6.85822 28.192 2.37901C22.5295 -0.534301 2.89008 -0.534301 1.134 19.8589C-0.550405 38.941 14 52.5972 24.8232 60.6088" stroke="#907272" stroke-width="1.5" stroke-linecap="round" stroke-linejoin="round"/>
<path d="M69.6658 14.5251L62.3831 14.0049L60.8225 37.4137L64.4639 34.8127L68.6254 26.4896L69.6658 14.5251Z" fill="#DEB3B3"/>
<path d="M47.0278 36.8923C69.5435 48.7702 79.2006 8.50594 78.2033 11.8799C74.3572 14.0377 70.4057 14.0207 63.5528 13.549C49.9833 12.6148 44.2649 23.3141 47.3947 31.5623C48.3396 28.9498 51.5999 23.819 57.0821 24.1964" stroke="#907272" stroke-width="1.5" stroke-linecap="round"/>
</svg>
